<svg version="1.1" xmlns="http://www.w3.org/2000/svg" xmlns:xlink="http://www.w3.org/1999/xlink" width="682.88525390625" height="644"><defs/><g><text fill="#eeeeee" stroke="none" font-family="Arial" font-size="24px" font-style="normal" font-weight="normal" text-decoration="none" x="0" y="0">UNREGISTERED</text><text fill="#eeeeee" stroke="none" font-family="Arial" font-size="24px" font-style="normal" font-weight="normal" text-decoration="none" x="0" y="30">UNREGISTERED</text><text fill="#eeeeee" stroke="none" font-family="Arial" font-size="24px" font-style="normal" font-weight="normal" text-decoration="none" x="0" y="60">UNREGISTERED</text><text fill="#eeeeee" stroke="none" font-family="Arial" font-size="24px" font-style="normal" font-weight="normal" text-decoration="none" x="0" y="90">UNREGISTERED</text><text fill="#eeeeee" stroke="none" font-family="Arial" font-size="24px" font-style="normal" font-weight="normal" text-decoration="none" x="0" y="120">UNREGISTERED</text><text fill="#eeeeee" stroke="none" font-family="Arial" font-size="24px" font-style="normal" font-weight="normal" text-decoration="none" x="0" y="150">UNREGISTERED</text><text fill="#eeeeee" stroke="none" font-family="Arial" font-size="24px" font-style="normal" font-weight="normal" text-decoration="none" x="0" y="180">UNREGISTERED</text><text fill="#eeeeee" stroke="none" font-family="Arial" font-size="24px" font-style="normal" font-weight="normal" text-decoration="none" x="0" y="210">UNREGISTERED</text><text fill="#eeeeee" stroke="none" font-family="Arial" font-size="24px" font-style="normal" font-weight="normal" text-decoration="none" x="0" y="240">UNREGISTERED</text><text fill="#eeeeee" stroke="none" font-family="Arial" font-size="24px" font-style="normal" font-weight="normal" text-decoration="none" x="0" y="270">UNREGISTERED</text><text fill="#eeeeee" stroke="none" font-family="Arial" font-size="24px" font-style="normal" font-weight="normal" text-decoration="none" x="0" y="300">UNREGISTERED</text><text fill="#eeeeee" stroke="none" font-family="Arial" font-size="24px" font-style="normal" font-weight="normal" text-decoration="none" x="0" y="330">UNREGISTERED</text><text fill="#eeeeee" stroke="none" font-family="Arial" font-size="24px" font-style="normal" font-weight="normal" text-decoration="none" x="0" y="360">UNREGISTERED</text><text fill="#eeeeee" stroke="none" font-family="Arial" font-size="24px" font-style="normal" font-weight="normal" text-decoration="none" x="0" y="390">UNREGISTERED</text><text fill="#eeeeee" stroke="none" font-family="Arial" font-size="24px" font-style="normal" font-weight="normal" text-decoration="none" x="0" y="420">UNREGISTERED</text><text fill="#eeeeee" stroke="none" font-family="Arial" font-size="24px" font-style="normal" font-weight="normal" text-decoration="none" x="0" y="450">UNREGISTERED</text><text fill="#eeeeee" stroke="none" font-family="Arial" font-size="24px" font-style="normal" font-weight="normal" text-decoration="none" x="0" y="480">UNREGISTERED</text><text fill="#eeeeee" stroke="none" font-family="Arial" font-size="24px" font-style="normal" font-weight="normal" text-decoration="none" x="0" y="510">UNREGISTERED</text><text fill="#eeeeee" stroke="none" font-family="Arial" font-size="24px" font-style="normal" font-weight="normal" text-decoration="none" x="0" y="540">UNREGISTERED</text><text fill="#eeeeee" stroke="none" font-family="Arial" font-size="24px" font-style="normal" font-weight="normal" text-decoration="none" x="0" y="570">UNREGISTERED</text><text fill="#eeeeee" stroke="none" font-family="Arial" font-size="24px" font-style="normal" font-weight="normal" text-decoration="none" x="0" y="600">UNREGISTERED</text><text fill="#eeeeee" stroke="none" font-family="Arial" font-size="24px" font-style="normal" font-weight="normal" text-decoration="none" x="0" y="630">UNREGISTERED</text><text fill="#eeeeee" stroke="none" font-family="Arial" font-size="24px" font-style="normal" font-weight="normal" text-decoration="none" x="200" y="0">UNREGISTERED</text><text fill="#eeeeee" stroke="none" font-family="Arial" font-size="24px" font-style="normal" font-weight="normal" text-decoration="none" x="200" y="30">UNREGISTERED</text><text fill="#eeeeee" stroke="none" font-family="Arial" font-size="24px" font-style="normal" font-weight="normal" text-decoration="none" x="200" y="60">UNREGISTERED</text><text fill="#eeeeee" stroke="none" font-family="Arial" font-size="24px" font-style="normal" font-weight="normal" text-decoration="none" x="200" y="90">UNREGISTERED</text><text fill="#eeeeee" stroke="none" font-family="Arial" font-size="24px" font-style="normal" font-weight="normal" text-decoration="none" x="200" y="120">UNREGISTERED</text><text fill="#eeeeee" stroke="none" font-family="Arial" font-size="24px" font-style="normal" font-weight="normal" text-decoration="none" x="200" y="150">UNREGISTERED</text><text fill="#eeeeee" stroke="none" font-family="Arial" font-size="24px" font-style="normal" font-weight="normal" text-decoration="none" x="200" y="180">UNREGISTERED</text><text fill="#eeeeee" stroke="none" font-family="Arial" font-size="24px" font-style="normal" font-weight="normal" text-decoration="none" x="200" y="210">UNREGISTERED</text><text fill="#eeeeee" stroke="none" font-family="Arial" font-size="24px" font-style="normal" font-weight="normal" text-decoration="none" x="200" y="240">UNREGISTERED</text><text fill="#eeeeee" stroke="none" font-family="Arial" font-size="24px" font-style="normal" font-weight="normal" text-decoration="none" x="200" y="270">UNREGISTERED</text><text fill="#eeeeee" stroke="none" font-family="Arial" font-size="24px" font-style="normal" font-weight="normal" text-decoration="none" x="200" y="300">UNREGISTERED</text><text fill="#eeeeee" stroke="none" font-family="Arial" font-size="24px" font-style="normal" font-weight="normal" text-decoration="none" x="200" y="330">UNREGISTERED</text><text fill="#eeeeee" stroke="none" font-family="Arial" font-size="24px" font-style="normal" font-weight="normal" text-decoration="none" x="200" y="360">UNREGISTERED</text><text fill="#eeeeee" stroke="none" font-family="Arial" font-size="24px" font-style="normal" font-weight="normal" text-decoration="none" x="200" y="390">UNREGISTERED</text><text fill="#eeeeee" stroke="none" font-family="Arial" font-size="24px" font-style="normal" font-weight="normal" text-decoration="none" x="200" y="420">UNREGISTERED</text><text fill="#eeeeee" stroke="none" font-family="Arial" font-size="24px" font-style="normal" font-weight="normal" text-decoration="none" x="200" y="450">UNREGISTERED</text><text fill="#eeeeee" stroke="none" font-family="Arial" font-size="24px" font-style="normal" font-weight="normal" text-decoration="none" x="200" y="480">UNREGISTERED</text><text fill="#eeeeee" stroke="none" font-family="Arial" font-size="24px" font-style="normal" font-weight="normal" text-decoration="none" x="200" y="510">UNREGISTERED</text><text fill="#eeeeee" stroke="none" font-family="Arial" font-size="24px" font-style="normal" font-weight="normal" text-decoration="none" x="200" y="540">UNREGISTERED</text><text fill="#eeeeee" stroke="none" font-family="Arial" font-size="24px" font-style="normal" font-weight="normal" text-decoration="none" x="200" y="570">UNREGISTERED</text><text fill="#eeeeee" stroke="none" font-family="Arial" font-size="24px" font-style="normal" font-weight="normal" text-decoration="none" x="200" y="600">UNREGISTERED</text><text fill="#eeeeee" stroke="none" font-family="Arial" font-size="24px" font-style="normal" font-weight="normal" text-decoration="none" x="200" y="630">UNREGISTERED</text><text fill="#eeeeee" stroke="none" font-family="Arial" font-size="24px" font-style="normal" font-weight="normal" text-decoration="none" x="400" y="0">UNREGISTERED</text><text fill="#eeeeee" stroke="none" font-family="Arial" font-size="24px" font-style="normal" font-weight="normal" text-decoration="none" x="400" y="30">UNREGISTERED</text><text fill="#eeeeee" stroke="none" font-family="Arial" font-size="24px" font-style="normal" font-weight="normal" text-decoration="none" x="400" y="60">UNREGISTERED</text><text fill="#eeeeee" stroke="none" font-family="Arial" font-size="24px" font-style="normal" font-weight="normal" text-decoration="none" x="400" y="90">UNREGISTERED</text><text fill="#eeeeee" stroke="none" font-family="Arial" font-size="24px" font-style="normal" font-weight="normal" text-decoration="none" x="400" y="120">UNREGISTERED</text><text fill="#eeeeee" stroke="none" font-family="Arial" font-size="24px" font-style="normal" font-weight="normal" text-decoration="none" x="400" y="150">UNREGISTERED</text><text fill="#eeeeee" stroke="none" font-family="Arial" font-size="24px" font-style="normal" font-weight="normal" text-decoration="none" x="400" y="180">UNREGISTERED</text><text fill="#eeeeee" stroke="none" font-family="Arial" font-size="24px" font-style="normal" font-weight="normal" text-decoration="none" x="400" y="210">UNREGISTERED</text><text fill="#eeeeee" stroke="none" font-family="Arial" font-size="24px" font-style="normal" font-weight="normal" text-decoration="none" x="400" y="240">UNREGISTERED</text><text fill="#eeeeee" stroke="none" font-family="Arial" font-size="24px" font-style="normal" font-weight="normal" text-decoration="none" x="400" y="270">UNREGISTERED</text><text fill="#eeeeee" stroke="none" font-family="Arial" font-size="24px" font-style="normal" font-weight="normal" text-decoration="none" x="400" y="300">UNREGISTERED</text><text fill="#eeeeee" stroke="none" font-family="Arial" font-size="24px" font-style="normal" font-weight="normal" text-decoration="none" x="400" y="330">UNREGISTERED</text><text fill="#eeeeee" stroke="none" font-family="Arial" font-size="24px" font-style="normal" font-weight="normal" text-decoration="none" x="400" y="360">UNREGISTERED</text><text fill="#eeeeee" stroke="none" font-family="Arial" font-size="24px" font-style="normal" font-weight="normal" text-decoration="none" x="400" y="390">UNREGISTERED</text><text fill="#eeeeee" stroke="none" font-family="Arial" font-size="24px" font-style="normal" font-weight="normal" text-decoration="none" x="400" y="420">UNREGISTERED</text><text fill="#eeeeee" stroke="none" font-family="Arial" font-size="24px" font-style="normal" font-weight="normal" text-decoration="none" x="400" y="450">UNREGISTERED</text><text fill="#eeeeee" stroke="none" font-family="Arial" font-size="24px" font-style="normal" font-weight="normal" text-decoration="none" x="400" y="480">UNREGISTERED</text><text fill="#eeeeee" stroke="none" font-family="Arial" font-size="24px" font-style="normal" font-weight="normal" text-decoration="none" x="400" y="510">UNREGISTERED</text><text fill="#eeeeee" stroke="none" font-family="Arial" font-size="24px" font-style="normal" font-weight="normal" text-decoration="none" x="400" y="540">UNREGISTERED</text><text fill="#eeeeee" stroke="none" font-family="Arial" font-size="24px" font-style="normal" font-weight="normal" text-decoration="none" x="400" y="570">UNREGISTERED</text><text fill="#eeeeee" stroke="none" font-family="Arial" font-size="24px" font-style="normal" font-weight="normal" text-decoration="none" x="400" y="600">UNREGISTERED</text><text fill="#eeeeee" stroke="none" font-family="Arial" font-size="24px" font-style="normal" font-weight="normal" text-decoration="none" x="400" y="630">UNREGISTERED</text><text fill="#eeeeee" stroke="none" font-family="Arial" font-size="24px" font-style="normal" font-weight="normal" text-decoration="none" x="600" y="0">UNREGISTERED</text><text fill="#eeeeee" stroke="none" font-family="Arial" font-size="24px" font-style="normal" font-weight="normal" text-decoration="none" x="600" y="30">UNREGISTERED</text><text fill="#eeeeee" stroke="none" font-family="Arial" font-size="24px" font-style="normal" font-weight="normal" text-decoration="none" x="600" y="60">UNREGISTERED</text><text fill="#eeeeee" stroke="none" font-family="Arial" font-size="24px" font-style="normal" font-weight="normal" text-decoration="none" x="600" y="90">UNREGISTERED</text><text fill="#eeeeee" stroke="none" font-family="Arial" font-size="24px" font-style="normal" font-weight="normal" text-decoration="none" x="600" y="120">UNREGISTERED</text><text fill="#eeeeee" stroke="none" font-family="Arial" font-size="24px" font-style="normal" font-weight="normal" text-decoration="none" x="600" y="150">UNREGISTERED</text><text fill="#eeeeee" stroke="none" font-family="Arial" font-size="24px" font-style="normal" font-weight="normal" text-decoration="none" x="600" y="180">UNREGISTERED</text><text fill="#eeeeee" stroke="none" font-family="Arial" font-size="24px" font-style="normal" font-weight="normal" text-decoration="none" x="600" y="210">UNREGISTERED</text><text fill="#eeeeee" stroke="none" font-family="Arial" font-size="24px" font-style="normal" font-weight="normal" text-decoration="none" x="600" y="240">UNREGISTERED</text><text fill="#eeeeee" stroke="none" font-family="Arial" font-size="24px" font-style="normal" font-weight="normal" text-decoration="none" x="600" y="270">UNREGISTERED</text><text fill="#eeeeee" stroke="none" font-family="Arial" font-size="24px" font-style="normal" font-weight="normal" text-decoration="none" x="600" y="300">UNREGISTERED</text><text fill="#eeeeee" stroke="none" font-family="Arial" font-size="24px" font-style="normal" font-weight="normal" text-decoration="none" x="600" y="330">UNREGISTERED</text><text fill="#eeeeee" stroke="none" font-family="Arial" font-size="24px" font-style="normal" font-weight="normal" text-decoration="none" x="600" y="360">UNREGISTERED</text><text fill="#eeeeee" stroke="none" font-family="Arial" font-size="24px" font-style="normal" font-weight="normal" text-decoration="none" x="600" y="390">UNREGISTERED</text><text fill="#eeeeee" stroke="none" font-family="Arial" font-size="24px" font-style="normal" font-weight="normal" text-decoration="none" x="600" y="420">UNREGISTERED</text><text fill="#eeeeee" stroke="none" font-family="Arial" font-size="24px" font-style="normal" font-weight="normal" text-decoration="none" x="600" y="450">UNREGISTERED</text><text fill="#eeeeee" stroke="none" font-family="Arial" font-size="24px" font-style="normal" font-weight="normal" text-decoration="none" x="600" y="480">UNREGISTERED</text><text fill="#eeeeee" stroke="none" font-family="Arial" font-size="24px" font-style="normal" font-weight="normal" text-decoration="none" x="600" y="510">UNREGISTERED</text><text fill="#eeeeee" stroke="none" font-family="Arial" font-size="24px" font-style="normal" font-weight="normal" text-decoration="none" x="600" y="540">UNREGISTERED</text><text fill="#eeeeee" stroke="none" font-family="Arial" font-size="24px" font-style="normal" font-weight="normal" text-decoration="none" x="600" y="570">UNREGISTERED</text><text fill="#eeeeee" stroke="none" font-family="Arial" font-size="24px" font-style="normal" font-weight="normal" text-decoration="none" x="600" y="600">UNREGISTERED</text><text fill="#eeeeee" stroke="none" font-family="Arial" font-size="24px" font-style="normal" font-weight="normal" text-decoration="none" x="600" y="630">UNREGISTERED</text><g transform="translate(-118,2) scale(1,1)"><rect fill="#C0C0C0" stroke="none" x="239" y="191" width="139.9140625" height="175" opacity="0.2"/></g><g transform="translate(-118,2) scale(1,1)"><rect fill="#ffffff" stroke="none" x="232" y="184" width="139.9140625" height="175"/></g><g transform="translate(-118,2) scale(1,1)"><path fill="none" stroke="#000000" d="M 232 184 L 371.9140625 184 L 371.9140625 359 L 232 359 L 232 184 Z Z" stroke-miterlimit="10"/></g><g transform="translate(-118,2) scale(1,1)"><path fill="none" stroke="#000000" d="M 232 209 L 371.9140625 209" stroke-miterlimit="10"/></g><g transform="translate(-118,2) scale(1,1)"><path fill="none" stroke="#000000" d="M 232 307 L 371.9140625 307" stroke-miterlimit="10"/></g><g transform="translate(-118,2) scale(1,1)"><g><path fill="none" stroke="none"/><text fill="#000000" stroke="none" font-family="Arial" font-size="13px" font-style="normal" font-weight="bold" text-decoration="none" x="277.7470703125" y="203.5">Docente</text></g></g><g transform="translate(-118,2) scale(1,1)"><g><path fill="none" stroke="none"/><text fill="#000000" stroke="none" font-family="Arial" font-size="13px" font-style="normal" font-weight="normal" text-decoration="none" x="237" y="226.5">+Nombres</text></g></g><g transform="translate(-118,2) scale(1,1)"><g><path fill="none" stroke="none"/><text fill="#000000" stroke="none" font-family="Arial" font-size="13px" font-style="normal" font-weight="normal" text-decoration="none" x="237" y="241.5">+Documento</text></g></g><g transform="translate(-118,2) scale(1,1)"><g><path fill="none" stroke="none"/><text fill="#000000" stroke="none" font-family="Arial" font-size="13px" font-style="normal" font-weight="normal" text-decoration="none" x="237" y="256.5">+ID_Docente</text></g></g><g transform="translate(-118,2) scale(1,1)"><g><path fill="none" stroke="none"/><text fill="#000000" stroke="none" font-family="Arial" font-size="13px" font-style="normal" font-weight="normal" text-decoration="none" x="237" y="271.5">+Apellidos</text></g></g><g transform="translate(-118,2) scale(1,1)"><g><path fill="none" stroke="none"/><text fill="#000000" stroke="none" font-family="Arial" font-size="13px" font-style="normal" font-weight="normal" text-decoration="none" x="237" y="286.5">+Contraseña</text></g></g><g transform="translate(-118,2) scale(1,1)"><g><path fill="none" stroke="none"/><text fill="#000000" stroke="none" font-family="Arial" font-size="13px" font-style="normal" font-weight="normal" text-decoration="none" x="237" y="301.5">+Usuario</text></g></g><g transform="translate(-118,2) scale(1,1)"><g><path fill="none" stroke="none"/><text fill="#000000" stroke="none" font-family="Arial" font-size="13px" font-style="normal" font-weight="normal" text-decoration="none" x="237" y="324.5">+Iniciar_Sesion()</text></g></g><g transform="translate(-118,2) scale(1,1)"><g><path fill="none" stroke="none"/><text fill="#000000" stroke="none" font-family="Arial" font-size="13px" font-style="normal" font-weight="normal" text-decoration="none" x="237" y="339.5">+Registrar_Clase()</text></g></g><g transform="translate(-118,2) scale(1,1)"><g><path fill="none" stroke="none"/><text fill="#000000" stroke="none" font-family="Arial" font-size="13px" font-style="normal" font-weight="normal" text-decoration="none" x="237" y="354.5">+Validar_Estudiantes()</text></g></g><g transform="translate(-118,2) scale(1,1)"><rect fill="#C0C0C0" stroke="none" x="399" y="15" width="132.1953125" height="205" opacity="0.2"/></g><g transform="translate(-118,2) scale(1,1)"><rect fill="#ffffff" stroke="none" x="392" y="8" width="132.1953125" height="205"/></g><g transform="translate(-118,2) scale(1,1)"><path fill="none" stroke="#000000" d="M 392 8 L 524.1953125 8 L 524.1953125 213 L 392 213 L 392 8 Z Z" stroke-miterlimit="10"/></g><g transform="translate(-118,2) scale(1,1)"><path fill="none" stroke="#000000" d="M 392 33 L 524.1953125 33" stroke-miterlimit="10"/></g><g transform="translate(-118,2) scale(1,1)"><path fill="none" stroke="#000000" d="M 392 146 L 524.1953125 146" stroke-miterlimit="10"/></g><g transform="translate(-118,2) scale(1,1)"><g><path fill="none" stroke="none"/><text fill="#000000" stroke="none" font-family="Arial" font-size="13px" font-style="normal" font-weight="bold" text-decoration="none" x="427.38134765625" y="27.5">Estudiante</text></g></g><g transform="translate(-118,2) scale(1,1)"><g><path fill="none" stroke="none"/><text fill="#000000" stroke="none" font-family="Arial" font-size="13px" font-style="normal" font-weight="normal" text-decoration="none" x="397" y="50.5">+Id_estudiante</text></g></g><g transform="translate(-118,2) scale(1,1)"><g><path fill="none" stroke="none"/><text fill="#000000" stroke="none" font-family="Arial" font-size="13px" font-style="normal" font-weight="normal" text-decoration="none" x="397" y="65.5">+Nombres</text></g></g><g transform="translate(-118,2) scale(1,1)"><g><path fill="none" stroke="none"/><text fill="#000000" stroke="none" font-family="Arial" font-size="13px" font-style="normal" font-weight="normal" text-decoration="none" x="397" y="80.5">+Apellidos</text></g></g><g transform="translate(-118,2) scale(1,1)"><g><path fill="none" stroke="none"/><text fill="#000000" stroke="none" font-family="Arial" font-size="13px" font-style="normal" font-weight="normal" text-decoration="none" x="397" y="95.5">+Carrera</text></g></g><g transform="translate(-118,2) scale(1,1)"><g><path fill="none" stroke="none"/><text fill="#000000" stroke="none" font-family="Arial" font-size="13px" font-style="normal" font-weight="normal" text-decoration="none" x="397" y="110.5">+Semestre</text></g></g><g transform="translate(-118,2) scale(1,1)"><g><path fill="none" stroke="none"/><text fill="#000000" stroke="none" font-family="Arial" font-size="13px" font-style="normal" font-weight="normal" text-decoration="none" x="397" y="125.5">+Documento</text></g></g><g transform="translate(-118,2) scale(1,1)"><g><path fill="none" stroke="none"/><text fill="#000000" stroke="none" font-family="Arial" font-size="13px" font-style="normal" font-weight="normal" text-decoration="none" x="397" y="140.5">+Jornada</text></g></g><g transform="translate(-118,2) scale(1,1)"><g><path fill="none" stroke="none"/><text fill="#000000" stroke="none" font-family="Arial" font-size="13px" font-style="normal" font-weight="normal" text-decoration="none" x="397" y="163.5">+Crear_Contraseña()</text></g></g><g transform="translate(-118,2) scale(1,1)"><g><path fill="none" stroke="none"/><text fill="#000000" stroke="none" font-family="Arial" font-size="13px" font-style="normal" font-weight="normal" text-decoration="none" x="397" y="178.5">+Validar_Asistencia()</text></g></g><g transform="translate(-118,2) scale(1,1)"><g><path fill="none" stroke="none"/><text fill="#000000" stroke="none" font-family="Arial" font-size="13px" font-style="normal" font-weight="normal" text-decoration="none" x="397" y="193.5">+Consulta_Horario()</text></g></g><g transform="translate(-118,2) scale(1,1)"><g><path fill="none" stroke="none"/><text fill="#000000" stroke="none" font-family="Arial" font-size="13px" font-style="normal" font-weight="normal" text-decoration="none" x="397" y="208.5">+Iniciar_Sesion()</text></g></g><g transform="translate(-118,2) scale(1,1)"><rect fill="#C0C0C0" stroke="none" x="655" y="231" width="136.2958984375" height="85" opacity="0.2"/></g><g transform="translate(-118,2) scale(1,1)"><rect fill="#ffffff" stroke="none" x="648" y="224" width="136.2958984375" height="85"/></g><g transform="translate(-118,2) scale(1,1)"><path fill="none" stroke="#000000" d="M 648 224 L 784.2958984375 224 L 784.2958984375 309 L 648 309 L 648 224 Z Z" stroke-miterlimit="10"/></g><g transform="translate(-118,2) scale(1,1)"><path fill="none" stroke="#000000" d="M 648 249 L 784.2958984375 249" stroke-miterlimit="10"/></g><g transform="translate(-118,2) scale(1,1)"><path fill="none" stroke="#000000" d="M 648 287 L 784.2958984375 287" stroke-miterlimit="10"/></g><g transform="translate(-118,2) scale(1,1)"><g><path fill="none" stroke="none"/><text fill="#000000" stroke="none" font-family="Arial" font-size="13px" font-style="normal" font-weight="bold" text-decoration="none" x="670.505126953125" y="243.5">Tipo de Usuario</text></g></g><g transform="translate(-118,2) scale(1,1)"><g><path fill="none" stroke="none"/><text fill="#000000" stroke="none" font-family="Arial" font-size="13px" font-style="normal" font-weight="normal" text-decoration="none" x="653" y="266.5">+ID_usuario</text></g></g><g transform="translate(-118,2) scale(1,1)"><g><path fill="none" stroke="none"/><text fill="#000000" stroke="none" font-family="Arial" font-size="13px" font-style="normal" font-weight="normal" text-decoration="none" x="653" y="281.5">+Nombre</text></g></g><g transform="translate(-118,2) scale(1,1)"><g><path fill="none" stroke="none"/><text fill="#000000" stroke="none" font-family="Arial" font-size="13px" font-style="normal" font-weight="normal" text-decoration="none" x="653" y="304.5">+Validacion_Usuario()</text></g></g><g transform="translate(-118,2) scale(1,1)"><rect fill="#C0C0C0" stroke="none" x="631" y="415" width="166.88525390625" height="145" opacity="0.2"/></g><g transform="translate(-118,2) scale(1,1)"><rect fill="#ffffff" stroke="none" x="624" y="408" width="166.88525390625" height="145"/></g><g transform="translate(-118,2) scale(1,1)"><path fill="none" stroke="#000000" d="M 624 408 L 790.88525390625 408 L 790.88525390625 553 L 624 553 L 624 408 Z Z" stroke-miterlimit="10"/></g><g transform="translate(-118,2) scale(1,1)"><path fill="none" stroke="#000000" d="M 624 433 L 790.88525390625 433" stroke-miterlimit="10"/></g><g transform="translate(-118,2) scale(1,1)"><path fill="none" stroke="#000000" d="M 624 501 L 790.88525390625 501" stroke-miterlimit="10"/></g><g transform="translate(-118,2) scale(1,1)"><g><path fill="none" stroke="none"/><text fill="#000000" stroke="none" font-family="Arial" font-size="13px" font-style="normal" font-weight="bold" text-decoration="none" x="667.344482421875" y="427.5">Administrador</text></g></g><g transform="translate(-118,2) scale(1,1)"><g><path fill="none" stroke="none"/><text fill="#000000" stroke="none" font-family="Arial" font-size="13px" font-style="normal" font-weight="normal" text-decoration="none" x="629" y="450.5">+Id_administrador</text></g></g><g transform="translate(-118,2) scale(1,1)"><g><path fill="none" stroke="none"/><text fill="#000000" stroke="none" font-family="Arial" font-size="13px" font-style="normal" font-weight="normal" text-decoration="none" x="629" y="465.5">+Apellidos</text></g></g><g transform="translate(-118,2) scale(1,1)"><g><path fill="none" stroke="none"/><text fill="#000000" stroke="none" font-family="Arial" font-size="13px" font-style="normal" font-weight="normal" text-decoration="none" x="629" y="480.5">+Nombres</text></g></g><g transform="translate(-118,2) scale(1,1)"><g><path fill="none" stroke="none"/><text fill="#000000" stroke="none" font-family="Arial" font-size="13px" font-style="normal" font-weight="normal" text-decoration="none" x="629" y="495.5">+Documentos</text></g></g><g transform="translate(-118,2) scale(1,1)"><g><path fill="none" stroke="none"/><text fill="#000000" stroke="none" font-family="Arial" font-size="13px" font-style="normal" font-weight="normal" text-decoration="none" x="629" y="518.5">+Modificar_datos()</text></g></g><g transform="translate(-118,2) scale(1,1)"><g><path fill="none" stroke="none"/><text fill="#000000" stroke="none" font-family="Arial" font-size="13px" font-style="normal" font-weight="normal" text-decoration="none" x="629" y="533.5">+Ingresar_Datos()</text></g></g><g transform="translate(-118,2) scale(1,1)"><g><path fill="none" stroke="none"/><text fill="#000000" stroke="none" font-family="Arial" font-size="13px" font-style="normal" font-weight="normal" text-decoration="none" x="629" y="548.5">+Recuperar_Contraseñas()</text></g></g><g transform="translate(-118,2) scale(1,1)"><rect fill="#C0C0C0" stroke="none" x="423" y="399" width="75.1298828125" height="72" opacity="0.2"/></g><g transform="translate(-118,2) scale(1,1)"><rect fill="#ffffff" stroke="none" x="416" y="392" width="75.1298828125" height="72"/></g><g transform="translate(-118,2) scale(1,1)"><path fill="none" stroke="#000000" d="M 416 392 L 491.1298828125 392 L 491.1298828125 464 L 416 464 L 416 392 Z Z" stroke-miterlimit="10"/></g><g transform="translate(-118,2) scale(1,1)"><path fill="none" stroke="#000000" d="M 416 417 L 491.1298828125 417" stroke-miterlimit="10"/></g><g transform="translate(-118,2) scale(1,1)"><path fill="none" stroke="#000000" d="M 416 455 L 491.1298828125 455" stroke-miterlimit="10"/></g><g transform="translate(-118,2) scale(1,1)"><g><path fill="none" stroke="none"/><text fill="#000000" stroke="none" font-family="Arial" font-size="13px" font-style="normal" font-weight="bold" text-decoration="none" x="432.252685546875" y="411.5">Horario</text></g></g><g transform="translate(-118,2) scale(1,1)"><g><path fill="none" stroke="none"/><text fill="#000000" stroke="none" font-family="Arial" font-size="13px" font-style="normal" font-weight="normal" text-decoration="none" x="421" y="434.5">+Hora</text></g></g><g transform="translate(-118,2) scale(1,1)"><g><path fill="none" stroke="none"/><text fill="#000000" stroke="none" font-family="Arial" font-size="13px" font-style="normal" font-weight="normal" text-decoration="none" x="421" y="449.5">+Id_horario</text></g></g><g transform="translate(-118,2) scale(1,1)"><rect fill="#C0C0C0" stroke="none" x="431" y="567" width="84.51171875" height="72" opacity="0.2"/></g><g transform="translate(-118,2) scale(1,1)"><rect fill="#ffffff" stroke="none" x="424" y="560" width="84.51171875" height="72"/></g><g transform="translate(-118,2) scale(1,1)"><path fill="none" stroke="#000000" d="M 424 560 L 508.51171875 560 L 508.51171875 632 L 424 632 L 424 560 Z Z" stroke-miterlimit="10"/></g><g transform="translate(-118,2) scale(1,1)"><path fill="none" stroke="#000000" d="M 424 585 L 508.51171875 585" stroke-miterlimit="10"/></g><g transform="translate(-118,2) scale(1,1)"><path fill="none" stroke="#000000" d="M 424 623 L 508.51171875 623" stroke-miterlimit="10"/></g><g transform="translate(-118,2) scale(1,1)"><g><path fill="none" stroke="none"/><text fill="#000000" stroke="none" font-family="Arial" font-size="13px" font-style="normal" font-weight="bold" text-decoration="none" x="441.331787109375" y="579.5">Materias</text></g></g><g transform="translate(-118,2) scale(1,1)"><g><path fill="none" stroke="none"/><text fill="#000000" stroke="none" font-family="Arial" font-size="13px" font-style="normal" font-weight="normal" text-decoration="none" x="429" y="602.5">+Id_materias</text></g></g><g transform="translate(-118,2) scale(1,1)"><g><path fill="none" stroke="none"/><text fill="#000000" stroke="none" font-family="Arial" font-size="13px" font-style="normal" font-weight="normal" text-decoration="none" x="429" y="617.5">+Nombre</text></g></g><g transform="translate(-118,2) scale(1,1)"><rect fill="#C0C0C0" stroke="none" x="223" y="551" width="72.2353515625" height="72" opacity="0.2"/></g><g transform="translate(-118,2) scale(1,1)"><rect fill="#ffffff" stroke="none" x="216" y="544" width="72.2353515625" height="72"/></g><g transform="translate(-118,2) scale(1,1)"><path fill="none" stroke="#000000" d="M 216 544 L 288.2353515625 544 L 288.2353515625 616 L 216 616 L 216 544 Z Z" stroke-miterlimit="10"/></g><g transform="translate(-118,2) scale(1,1)"><path fill="none" stroke="#000000" d="M 216 569 L 288.2353515625 569" stroke-miterlimit="10"/></g><g transform="translate(-118,2) scale(1,1)"><path fill="none" stroke="#000000" d="M 216 607 L 288.2353515625 607" stroke-miterlimit="10"/></g><g transform="translate(-118,2) scale(1,1)"><g><path fill="none" stroke="none"/><text fill="#000000" stroke="none" font-family="Arial" font-size="13px" font-style="normal" font-weight="bold" text-decoration="none" x="239.108154296875" y="563.5">Aula</text></g></g><g transform="translate(-118,2) scale(1,1)"><g><path fill="none" stroke="none"/><text fill="#000000" stroke="none" font-family="Arial" font-size="13px" font-style="normal" font-weight="normal" text-decoration="none" x="221" y="586.5">+Id_aula</text></g></g><g transform="translate(-118,2) scale(1,1)"><g><path fill="none" stroke="none"/><text fill="#000000" stroke="none" font-family="Arial" font-size="13px" font-style="normal" font-weight="normal" text-decoration="none" x="221" y="601.5">+Nombre</text></g></g><g transform="translate(-118,2) scale(1,1)"><rect fill="#C0C0C0" stroke="none" x="135" y="383" width="72.2353515625" height="72" opacity="0.2"/></g><g transform="translate(-118,2) scale(1,1)"><rect fill="#ffffff" stroke="none" x="128" y="376" width="72.2353515625" height="72"/></g><g transform="translate(-118,2) scale(1,1)"><path fill="none" stroke="#000000" d="M 128 376 L 200.2353515625 376 L 200.2353515625 448 L 128 448 L 128 376 Z Z" stroke-miterlimit="10"/></g><g transform="translate(-118,2) scale(1,1)"><path fill="none" stroke="#000000" d="M 128 401 L 200.2353515625 401" stroke-miterlimit="10"/></g><g transform="translate(-118,2) scale(1,1)"><path fill="none" stroke="#000000" d="M 128 439 L 200.2353515625 439" stroke-miterlimit="10"/></g><g transform="translate(-118,2) scale(1,1)"><g><path fill="none" stroke="none"/><text fill="#000000" stroke="none" font-family="Arial" font-size="13px" font-style="normal" font-weight="bold" text-decoration="none" x="147.49951171875" y="395.5">Clase</text></g></g><g transform="translate(-118,2) scale(1,1)"><g><path fill="none" stroke="none"/><text fill="#000000" stroke="none" font-family="Arial" font-size="13px" font-style="normal" font-weight="normal" text-decoration="none" x="133" y="418.5">+Id_clase</text></g></g><g transform="translate(-118,2) scale(1,1)"><g><path fill="none" stroke="none"/><text fill="#000000" stroke="none" font-family="Arial" font-size="13px" font-style="normal" font-weight="normal" text-decoration="none" x="133" y="433.5">+dia</text></g></g><g transform="translate(-118,2) scale(1,1)"><path fill="none" stroke="#000000" d="M 525 151 L 647 224" stroke-miterlimit="10"/></g><g transform="translate(-118,2) scale(1,1)"><path fill="#FFFFFF" stroke="none" d="M 625.2357082430225 220.78820855017608 L 647 224 L 633.8814012248462 206.33924219699128"/></g><g transform="translate(-118,2) scale(1,1)"><path fill="none" stroke="#000000" d="M 625.2357082430225 220.78820855017608 L 647 224 L 633.8814012248462 206.33924219699128 L 625.2357082430225 220.78820855017608" stroke-miterlimit="10"/></g><g transform="translate(-118,2) scale(1,1)"><path fill="none" stroke="#000000" d="M 373 270 L 647 267" stroke-miterlimit="10"/></g><g transform="translate(-118,2) scale(1,1)"><path fill="#FFFFFF" stroke="none" d="M 626.7680421579574 275.64105791427255 L 647 267 L 626.5836947654036 258.8039960610191"/></g><g transform="translate(-118,2) scale(1,1)"><path fill="none" stroke="#000000" d="M 626.7680421579574 275.64105791427255 L 647 267 L 626.5836947654036 258.8039960610191 L 626.7680421579574 275.64105791427255" stroke-miterlimit="10"/></g><g transform="translate(-118,2) scale(1,1)"><path fill="none" stroke="#000000" d="M 710 407 L 714 310" stroke-miterlimit="10"/></g><g transform="translate(-118,2) scale(1,1)"><path fill="#FFFFFF" stroke="none" d="M 721.5744393312067 330.65497201203306 L 714 310 L 704.7506666398555 329.9612081897093"/></g><g transform="translate(-118,2) scale(1,1)"><path fill="none" stroke="#000000" d="M 721.5744393312067 330.65497201203306 L 714 310 L 704.7506666398555 329.9612081897093 L 721.5744393312067 330.65497201203306" stroke-miterlimit="10"/></g><g transform="translate(-118,2) scale(1,1)"><path fill="none" stroke="#000000" d="M 456 214 L 454 391" stroke-miterlimit="10"/></g><g transform="translate(-118,2) scale(1,1)"><path fill="none" stroke="#000000" d="M 231 343 L 200 375" stroke-miterlimit="10"/></g><g transform="translate(-118,2) scale(1,1)"><path fill="none" stroke="#000000" d="M 289 552 L 415 457" stroke-miterlimit="10"/></g><g transform="translate(-118,2) scale(1,1)"><path fill="none" stroke="#000000" d="M 201 414 L 415 426" stroke-miterlimit="10"/></g><g transform="translate(-118,2) scale(1,1)"><path fill="none" stroke="#000000" d="M 456 465 L 463 559" stroke-miterlimit="10"/></g></g></svg>